# xmcd CD database file generated by OrangeCD 6.3
#
# Track frame offsets:
#	182
#	12087
#	24175
#	39562
#	52567
#	64547
#	78002
#	90482
#	104300
#	115775
#	127925
#	141495
#	153957
#	168462
#	185995
#	200060
#	214445
#	226475
#
# Disc length: 3183 seconds
#
# Revision: 2
# Processed by: cddbd v1.5.2PL0 Copyright (c) Steve Scherf et al.
# Submitted via: OrangeCD 6.3
#
DISCID=e70c6d12
DTITLE=Little Milton - Stand By Me
DYEAR=1995
DGENRE=Soul Blues
TTITLE0=Losing Hand
TTITLE1=Life Is Like That
TTITLE2=Blind Man
TTITLE3=Stand By Me
TTITLE4=We're Gonna Make it
TTITLE5=Who's Cheating Who
TTITLE6=You're Welcome To The Club
TTITLE7=I'm Gonna Move To The Outskirts Of Town
TTITLE8=Can't Hold Back The Tears
TTITLE9=Grits Ain't Groceries (All Around The World)
TTITLE10=Let's Get Together
TTITLE11=Your Precious Love
TTITLE12=Kansas City
TTITLE13=Things I Used To Do
TTITLE14=If Walls Could Talk
TTITLE15=Blues Gett off My Shoulder
TTITLE16=Good to Me As I Am To You
TTITLE17=Poor Man' Song
EXTD=
EXTT0=
EXTT1=
EXTT2=
EXTT3=
EXTT4=
EXTT5=
EXTT6=
EXTT7=
EXTT8=
EXTT9=
EXTT10=
EXTT11=
EXTT12=
EXTT13=
EXTT14=
EXTT15=
EXTT16=
EXTT17=
PLAYORDER=
